<?xml version="1.0" encoding="iso-8859-1"?>
<!-- Generator: Adobe Illustrator 19.0.0, SVG Export Plug-In . SVG Version: 6.00 Build 0)  -->
<svg version="1.1" id="Capa_1" xmlns="http://www.w3.org/2000/svg" xmlns:xlink="http://www.w3.org/1999/xlink" x="0px" y="0px"
	 viewBox="0 0 480 480" style="enable-background:new 0 0 480 480;" xml:space="preserve">
<g>
	<g>
		<g>
			<path d="M104,352H72v-21.472c9.555-3.378,15.958-12.394,16-22.528v-33.6l11.096-16.632l-13.312-8.88L70.4,272h-6.808
				c-2.209-13.069-14.595-21.873-27.664-19.664C22.858,254.545,14.054,266.931,16.263,280C18.22,291.575,28.261,300.035,40,300v8
				c0.042,10.134,6.445,19.15,16,22.528V352H24c-13.255,0-24,10.745-24,24s10.745,24,24,24h32v64H24v16h80v-16H72v-64h32
				c13.255,0,24-10.745,24-24S117.255,352,104,352z M40,272v12c-4.418,0-8-3.582-8-8s3.582-8,8-8c2.807,0.032,5.386,1.556,6.768,4
				H40z M56,288h16v20c0,4.418-3.582,8-8,8s-8-3.582-8-8V288z M104,384H24c-4.418,0-8-3.582-8-8s3.582-8,8-8h80c4.418,0,8,3.582,8,8
				S108.418,384,104,384z"/>
			<path d="M480,248v-8c-0.084-70.658-57.342-127.916-128-128h-32c-70.658,0.084-127.916,57.342-128,128v8h136v152H164
				c-15.464,0-28,12.536-28,28c0,15.464,12.536,28,28,28h4v24h16v-24h144v24h16v-24h32v24h16v-32.408l79.8-79.792
				c10.931-10.934,10.931-28.658,0-39.592c-11.08-10.579-28.52-10.579-39.6,0L360.408,400H344V248H480z M463.72,232H395v-5.336
				c-0.152-29.745-10.352-58.565-28.944-81.784L352.624,128C411.11,128.392,459.474,173.667,463.72,232z M344,142.88l9.536,12
				c16.343,20.383,25.317,45.691,25.464,71.816V232h-35V142.88z M277,232h-68.72c4.246-58.333,52.61-103.608,111.096-104
				l-13.432,16.88c-18.592,23.219-28.792,52.039-28.944,81.784V232z M293,232v-5.336c0.147-26.125,9.121-51.433,25.464-71.816
				L328,142.88V232H293z M348,424v-8h19.032l12.8-12.8l8.168,8.112L399.312,400l-8.112-8.144l12.656-12.656l8.144,8.112L423.312,376
				l-8.112-8.144l12.656-12.656l8.144,8.112L447.312,352l-8.112-8.144l4.344-4.344c4.749-4.537,12.227-4.537,16.976,0
				c4.685,4.686,4.685,12.282,0,16.968l-80,80c-2.255,2.265-5.324,3.533-8.52,3.52H164c-6.627,0-12-5.373-12-12
				c0-6.627,5.373-12,12-12h8v8h16v-8h16v8h16v-8h16v8h16v-8h16v8h16v-8h16v8h16v-8h16v8H348z"/>
			<path d="M104,144c26.499-0.026,47.974-21.501,48-48c0-26.51-21.49-48-48-48c-26.51,0-48,21.49-48,48S77.49,144,104,144z M104,64
				c17.673,0,32,14.327,32,32s-14.327,32-32,32s-32-14.327-32-32S86.327,64,104,64z"/>
			<rect x="96" width="16" height="32"/>
			<rect x="152.482" y="23.545" transform="matrix(0.7072 0.707 -0.707 0.7072 74.9412 -101.8805)" width="16" height="32"/>
			<rect x="168" y="88" width="32" height="16"/>
			<rect x="144.568" y="144.546" transform="matrix(-0.7066 -0.7076 0.7076 -0.7066 166.0855 373.955)" width="32" height="16"/>
			<rect x="24.405" y="25.899" transform="matrix(0.7071 0.7071 -0.7071 0.7071 35.8048 -18.642)" width="32" height="16"/>
			<rect y="88" width="32" height="16"/>
			<rect x="96" y="160" width="16" height="32"/>
			<rect x="39.424" y="136.564" transform="matrix(-0.7072 -0.707 0.707 -0.7072 -26.8956 293.9894)" width="16" height="32"/>
		</g>
	</g>
</g>
<g>
</g>
<g>
</g>
<g>
</g>
<g>
</g>
<g>
</g>
<g>
</g>
<g>
</g>
<g>
</g>
<g>
</g>
<g>
</g>
<g>
</g>
<g>
</g>
<g>
</g>
<g>
</g>
<g>
</g>
</svg>
