<?xml version="1.0"?>
<svg xmlns="http://www.w3.org/2000/svg" xmlns:xlink="http://www.w3.org/1999/xlink" version="1.1" id="Layer_1" x="0px" y="0px" viewBox="0 0 512 512" style="enable-background:new 0 0 512 512;" xml:space="preserve" width="512px" height="512px"><g transform="matrix(0.9998 0 0 0.9998 0.0511973 0.0511973)"><g>
	<g>
		<path d="M388.741,341.333c-47.053,0-85.333,38.28-85.333,85.333S341.687,512,388.741,512s85.333-38.28,85.333-85.333    S435.794,341.333,388.741,341.333z M388.741,493.037c-36.597,0-66.37-29.773-66.37-66.37c0-36.597,29.773-66.37,66.37-66.37    c36.597,0,66.37,29.773,66.37,66.37C455.111,463.264,425.338,493.037,388.741,493.037z" data-original="#000000" class="active-path" fill="#000000"/>
	</g>
</g><g>
	<g>
		<path d="M432.736,390.938c-4.023-3.35-10-2.808-13.354,1.215l-40.759,48.912l-21.104-21.102c-3.699-3.704-9.708-3.704-13.407,0    c-3.704,3.701-3.704,9.706,0,13.407l28.444,28.444c1.782,1.782,4.194,2.778,6.704,2.778c0.143,0,0.287-0.002,0.43-0.009    c2.66-0.12,5.148-1.357,6.854-3.403l47.407-56.889C437.303,400.269,436.759,394.292,432.736,390.938z" data-original="#000000" class="active-path" fill="#000000"/>
	</g>
</g><g>
	<g>
		<path d="M388.741,0H47.407c-5.236,0-9.482,4.245-9.482,9.482v474.074c0,3.417,1.838,6.567,4.81,8.25    c2.968,1.685,6.618,1.639,9.549-0.12l41.942-25.164l32.824,24.62c3.086,2.315,7.266,2.528,10.567,0.544l41.942-25.164    l32.824,24.62c1.681,1.259,3.68,1.896,5.69,1.896c1.683,0,3.373-0.447,4.877-1.352l47.407-28.444    c4.491-2.694,5.947-8.519,3.252-13.007c-2.694-4.488-8.521-5.947-13.007-3.252l-41.942,25.164l-32.824-24.62    c-3.09-2.315-7.266-2.53-10.567-0.544l-41.942,25.164l-32.824-24.62c-3.09-2.315-7.266-2.53-10.567-0.544L56.889,466.81V18.963    h322.37v293.926c0,5.236,4.245,9.481,9.481,9.481s9.482-4.245,9.482-9.481V9.482C398.222,4.245,393.977,0,388.741,0z" data-original="#000000" class="active-path" fill="#000000"/>
	</g>
</g><g>
	<g>
		<path d="M142.222,85.333H94.815c-5.236,0-9.482,4.245-9.482,9.482s4.245,9.482,9.482,9.482h47.407    c5.236,0,9.481-4.245,9.481-9.482S147.458,85.333,142.222,85.333z" data-original="#000000" class="active-path" fill="#000000"/>
	</g>
</g><g>
	<g>
		<path d="M322.37,132.741h-47.407c-5.236,0-9.481,4.245-9.481,9.482s4.245,9.481,9.481,9.481h47.407    c5.236,0,9.482-4.245,9.482-9.481S327.607,132.741,322.37,132.741z" data-original="#000000" class="active-path" fill="#000000"/>
	</g>
</g><g>
	<g>
		<path d="M322.37,180.148h-47.407c-5.236,0-9.481,4.245-9.481,9.482s4.245,9.481,9.481,9.481h47.407    c5.236,0,9.482-4.245,9.482-9.481S327.607,180.148,322.37,180.148z" data-original="#000000" class="active-path" fill="#000000"/>
	</g>
</g><g>
	<g>
		<path d="M322.37,227.556h-47.407c-5.236,0-9.481,4.245-9.481,9.482s4.245,9.481,9.481,9.481h47.407    c5.236,0,9.482-4.245,9.482-9.481S327.607,227.556,322.37,227.556z" data-original="#000000" class="active-path" fill="#000000"/>
	</g>
</g><g>
	<g>
		<path d="M322.37,274.963h-47.407c-5.236,0-9.481,4.245-9.481,9.482s4.245,9.481,9.481,9.481h47.407    c5.236,0,9.482-4.245,9.482-9.481S327.607,274.963,322.37,274.963z" data-original="#000000" class="active-path" fill="#000000"/>
	</g>
</g><g>
	<g>
		<path d="M322.37,322.37h-47.407c-5.236,0-9.481,4.245-9.481,9.482s4.245,9.481,9.481,9.481h47.407    c5.236,0,9.482-4.245,9.482-9.481S327.607,322.37,322.37,322.37z" data-original="#000000" class="active-path" fill="#000000"/>
	</g>
</g><g>
	<g>
		<path d="M227.556,132.741H94.815c-5.236,0-9.482,4.245-9.482,9.482s4.245,9.481,9.482,9.481h132.741    c5.236,0,9.482-4.245,9.482-9.481S232.792,132.741,227.556,132.741z" data-original="#000000" class="active-path" fill="#000000"/>
	</g>
</g><g>
	<g>
		<path d="M227.556,180.148H94.815c-5.236,0-9.482,4.245-9.482,9.482s4.245,9.481,9.482,9.481h132.741    c5.236,0,9.482-4.245,9.482-9.481S232.792,180.148,227.556,180.148z" data-original="#000000" class="active-path" fill="#000000"/>
	</g>
</g><g>
	<g>
		<path d="M227.556,227.556H94.815c-5.236,0-9.482,4.245-9.482,9.482s4.245,9.481,9.482,9.481h132.741    c5.236,0,9.482-4.245,9.482-9.481S232.792,227.556,227.556,227.556z" data-original="#000000" class="active-path" fill="#000000"/>
	</g>
</g><g>
	<g>
		<path d="M227.556,274.963H94.815c-5.236,0-9.482,4.245-9.482,9.482s4.245,9.481,9.482,9.481h132.741    c5.236,0,9.482-4.245,9.482-9.481S232.792,274.963,227.556,274.963z" data-original="#000000" class="active-path" fill="#000000"/>
	</g>
</g><g>
	<g>
		<path d="M227.556,322.37H94.815c-5.236,0-9.482,4.245-9.482,9.482s4.245,9.481,9.482,9.481h132.741    c5.236,0,9.482-4.245,9.482-9.481S232.792,322.37,227.556,322.37z" data-original="#000000" class="active-path" fill="#000000"/>
	</g>
</g></g> </svg>
