<?xml version="1.0" encoding="iso-8859-1"?>
<!-- Generator: Adobe Illustrator 16.0.0, SVG Export Plug-In . SVG Version: 6.00 Build 0)  -->
<!DOCTYPE svg PUBLIC "-//W3C//DTD SVG 1.1//EN" "http://www.w3.org/Graphics/SVG/1.1/DTD/svg11.dtd">
<svg version="1.1" id="Capa_1" xmlns="http://www.w3.org/2000/svg" xmlns:xlink="http://www.w3.org/1999/xlink" x="0px" y="0px"
	 width="550.499px" height="550.499px" viewBox="0 0 550.499 550.499" style="enable-background:new 0 0 550.499 550.499;"
	 xml:space="preserve">
<g>
	<g>
		<path d="M66.055,437.61c1.373-7.739,5.144-14.342,11.025-19.486c5.144-5.881,11.708-9.817,19.847-11.394
			c14.656-2.839,26.458,1.835,36.024,11.394c9.928,9.936,13.919,21.306,10.657,35.287c-1.882,8.077-5.144,14.703-10.657,20.216
			c-5.512,5.512-12.186,8.892-20.215,10.664c-13.667,3.011-25.171-0.564-35.655-10.664C67.341,464.24,63.389,452.658,66.055,437.61z
			"/>
		<path d="M47.674,264.485c1.937,10.578,12.79,18.043,23.524,15.801c56.169-11.724,112.746,5.606,153.647,45.951
			c40.337,39.788,57.251,96.646,45.944,152.533c-1.561,7.708,0.368,14.342,5.144,19.118c3.678,2.571,7.355,4.398,10.657,5.144
			c11.394,2.564,21.713-4.47,23.893-15.801c6.649-34.62,5.145-68.738-4.775-102.183c-9.928-33.452-27.571-62.857-52.193-87.488
			c-24.991-24.991-54.467-42.415-88.217-52.562c-33.515-10.068-67.563-11.402-101.814-4.775
			C52.152,242.419,45.573,252.997,47.674,264.485z"/>
		<path d="M25.993,429.887c-5.74,26.418,3.215,53.385,22.418,72.408c19.024,18.844,45.528,26.968,72.409,21.689
			c31.202-6.124,56.106-31.342,62.489-62.488c5.748-28.042-1.105-52.193-21.689-72.777c-18.741-18.741-45.928-26.74-72.409-22.051
			c-15.056,2.666-29.029,9.551-41.537,22.051C36.641,399.752,29.435,414.031,25.993,429.887z"/>
		<path d="M23.789,145.388c2.195,11.339,12.405,17.957,23.156,15.809c48.069-9.613,95.549-6.932,141.877,6.986
			c46.665,14.014,86.743,37.859,120.932,72.041c34.55,34.55,58.757,74.996,72.777,121.661c13.919,46.336,16.17,93.369,6.25,141.147
			c-0.737,7.724,1.475,13.966,6.25,18.749c4.406,3.31,7.716,5.145,10.288,5.513c10.656,2.572,21.329-4.524,23.524-15.809
			c10.68-54.906,8.774-108.417-6.987-161.363C406,296.848,378.485,250.88,339.152,211.555
			c-39.333-39.333-85.653-66.48-138.576-82.336c-52.577-15.754-106.167-18.075-160.994-7.716
			C28.251,123.644,21.57,133.924,23.789,145.388z"/>
		<path d="M0.264,33.285C1.84,43.981,13.783,51.32,24.526,49.086c67.187-13.942,133.063-10.288,197.748,9.19
			c64.692,19.486,120.838,53.385,168.71,101.453c47.692,47.873,81.553,104.034,101.078,169.08
			c19.431,64.708,22.732,130.106,9.559,196.649c-1.529,7.7,0.368,13.966,5.513,19.11c4.046,2.94,7.355,4.775,10.288,5.144
			c11.394,2.572,22.042-4.478,24.262-15.801c14.326-73.216,11.394-145.562-10.288-216.865
			c-21.689-71.312-58.718-133.518-111.742-186.723C367.185,77.668,304.923,40.806,233.667,19.312
			C162.31-2.205,90.019-5.303,16.802,9.023C5.479,11.243-1.469,21.555,0.264,33.285z"/>
	</g>
</g>
<g>
</g>
<g>
</g>
<g>
</g>
<g>
</g>
<g>
</g>
<g>
</g>
<g>
</g>
<g>
</g>
<g>
</g>
<g>
</g>
<g>
</g>
<g>
</g>
<g>
</g>
<g>
</g>
<g>
</g>
</svg>
