<?xml version="1.0" encoding="iso-8859-1"?>
<!-- Generator: Adobe Illustrator 19.0.0, SVG Export Plug-In . SVG Version: 6.00 Build 0)  -->
<svg version="1.1" id="Capa_1" xmlns="http://www.w3.org/2000/svg" xmlns:xlink="http://www.w3.org/1999/xlink" x="0px" y="0px"
	 viewBox="0 0 409.6 409.6" style="enable-background:new 0 0 409.6 409.6;" xml:space="preserve">
<g>
	<g>
		<path d="M382.321,0H27.279C12.24,0,0,12.237,0,27.279v355.041C0,397.363,12.24,409.6,27.279,409.6h355.041
			c15.039,0,27.279-12.237,27.279-27.279V27.279C409.6,12.237,397.36,0,382.321,0z M395.947,382.321
			c0,7.513-6.113,13.626-13.626,13.626H27.279c-7.513,0-13.626-6.113-13.626-13.626V27.279c0-7.513,6.113-13.626,13.626-13.626
			h355.041c7.513,0,13.626,6.113,13.626,13.626V382.321z"/>
	</g>
</g>
<g>
	<g>
		<path d="M99.226,310.371c-6.444-6.448-15.012-9.998-24.132-9.998s-17.688,3.55-24.132,9.994
			c-13.305,13.312-13.305,34.966,0,48.275c6.444,6.448,15.012,9.998,24.132,9.998s17.688-3.55,24.132-9.994
			C112.531,345.334,112.531,323.68,99.226,310.371z M89.573,348.989c-7.731,7.735-21.224,7.735-28.959,0
			c-7.987-7.987-7.987-20.978,0-28.966c3.867-3.867,9.004-5.997,14.479-5.997s10.612,2.13,14.479,5.997
			C97.56,328.011,97.56,341.002,89.573,348.989z"/>
	</g>
</g>
<g>
	<g>
		<g>
			<polygon points="232.1,348.57 232.1,348.57 232.1,348.573 			"/>
			<path d="M54.211,170.68c-5.427,0.065-10.51,2.236-14.295,6.12c-3.792,3.881-5.84,9.004-5.779,14.432
				c0.068,5.427,2.239,10.503,6.12,14.295c3.826,3.727,8.851,5.775,14.179,5.775c0.085,0,0.174,0,0.253,0
				c37.021-0.328,71.629,13.534,97.44,39.345c25.818,25.818,39.793,60.419,39.339,97.44c-0.126,11.196,8.875,20.415,20.074,20.552
				c0.078,0,0.16,0,0.239,0c11.093,0,20.186-8.953,20.32-20.07c0.573-48.055-17.62-93.031-51.241-126.645
				C147.238,188.303,102.431,170.042,54.211,170.68z M218.443,348.409c-0.041,3.669-3.127,6.54-6.741,6.578
				c-3.673-0.044-6.622-3.069-6.581-6.738c0.495-40.728-14.899-78.817-43.339-107.257c-28.006-28.003-65.365-43.356-105.393-43.356
				c-0.655,0-1.355,0.014-1.949,0.01c-1.744,0-3.393-0.672-4.646-1.894c-1.273-1.242-1.987-2.905-2.007-4.683
				c-0.02-1.782,0.655-3.461,1.894-4.734c1.239-1.27,2.908-1.983,4.687-2.004c44.602-0.648,85.835,16.247,116.835,47.244
				c30.993,30.997,47.773,72.486,47.241,116.832C218.443,348.409,218.443,348.409,218.443,348.409z"/>
		</g>
	</g>
</g>
<g>
	<g>
		<path d="M146.654,262.939c-22.961-22.961-52.876-36.328-84.241-37.639c-5.468-0.232-10.752,1.693-14.8,5.417
			c-4.052,3.724-6.407,8.803-6.632,14.292c-0.232,5.495,1.693,10.752,5.414,14.8c3.727,4.048,8.803,6.403,14.295,6.632
			c21.019,0.881,41.213,9.977,56.853,25.617c15.64,15.637,24.733,35.826,25.62,56.849c0.225,5.495,2.577,10.575,6.625,14.298
			c3.833,3.523,8.745,5.434,13.92,5.434c0.294,0,0.587-0.007,0.884-0.021c5.495-0.229,10.568-2.58,14.295-6.632
			c3.721-4.048,5.646-9.305,5.414-14.8C182.989,315.815,169.622,285.897,146.654,262.939z M168.83,352.744
			c-1.253,1.362-2.959,2.157-4.813,2.232c-1.782,0.082-3.628-0.567-4.987-1.823c-1.365-1.253-2.154-2.963-2.232-4.816
			c-1.027-24.457-11.54-47.875-29.607-65.935c-18.067-18.067-41.479-28.58-65.932-29.604c-1.853-0.075-3.56-0.867-4.813-2.232
			c-1.253-1.365-1.905-3.133-1.826-4.994c0.079-1.847,0.867-3.557,2.232-4.806c1.287-1.188,2.946-1.833,4.693-1.833
			c0.102,0,0.195,0.003,0.29,0.007c27.935,1.164,54.627,13.117,75.162,33.652c20.531,20.528,32.485,47.22,33.659,75.165
			C170.738,349.611,170.083,351.382,168.83,352.744z"/>
	</g>
</g>
<g>
</g>
<g>
</g>
<g>
</g>
<g>
</g>
<g>
</g>
<g>
</g>
<g>
</g>
<g>
</g>
<g>
</g>
<g>
</g>
<g>
</g>
<g>
</g>
<g>
</g>
<g>
</g>
<g>
</g>
</svg>
